millimetreA extended 01.ufo
<glyph name="ampersand" format="1">
  <advance width="800"/>
  <unicode hex="0026"/>
  <outline>
    <contour>
      <point x="750" y="350" type="line"/>
      <point x="750" y="400" type="line"/>
      <point x="650" y="400" type="line"/>
      <point x="650" y="350" type="line"/>
    </contour>
    <contour>
      <point x="600" y="400" type="line"/>
      <point x="800" y="400" type="line"/>
      <point x="800" y="500" type="line"/>
      <point x="600" y="500" type="line"/>
    </contour>
    <contour>
      <point x="650" y="350" type="line"/>
      <point x="650" y="170"/>
      <point x="570" y="90"/>
      <point x="350" y="90" type="curve"/>
      <point x="210" y="90"/>
      <point x="140" y="130"/>
      <point x="140" y="240" type="curve" smooth="yes"/>
      <point x="140" y="250" type="line" smooth="yes"/>
      <point x="140" y="350"/>
      <point x="220" y="390"/>
      <point x="380" y="390" type="curve"/>
      <point x="380" y="390"/>
      <point x="310" y="470"/>
      <point x="310" y="470" type="curve"/>
      <point x="150" y="470"/>
      <point x="40" y="400"/>
      <point x="40" y="250" type="curve"/>
      <point x="40" y="240" type="line"/>
      <point x="40" y="70"/>
      <point x="160" y="-10"/>
      <point x="350" y="-10" type="curve"/>
      <point x="630" y="-10"/>
      <point x="750" y="130"/>
      <point x="750" y="350" type="curve"/>
    </contour>
    <contour>
      <point x="310" y="400" type="curve" smooth="yes"/>
      <point x="650" y="0" type="line"/>
      <point x="750" y="0" type="line"/>
      <point x="750" y="40" type="line"/>
      <point x="380" y="470" type="line" smooth="yes"/>
      <point x="360" y="490"/>
      <point x="350" y="530"/>
      <point x="350" y="550" type="curve" smooth="yes"/>
      <point x="350" y="560" type="line" smooth="yes"/>
      <point x="350" y="600"/>
      <point x="370" y="610"/>
      <point x="400" y="610" type="curve"/>
      <point x="430" y="610"/>
      <point x="450" y="600"/>
      <point x="450" y="560" type="curve"/>
      <point x="450" y="520"/>
      <point x="410" y="480"/>
      <point x="350" y="470" type="curve"/>
      <point x="410" y="400" type="line"/>
      <point x="500" y="430"/>
      <point x="550" y="490"/>
      <point x="550" y="560" type="curve"/>
      <point x="550" y="660"/>
      <point x="490" y="710"/>
      <point x="400" y="710" type="curve"/>
      <point x="320" y="710"/>
      <point x="250" y="650"/>
      <point x="250" y="560" type="curve"/>
      <point x="250" y="550" type="line"/>
      <point x="250" y="510"/>
      <point x="280" y="440"/>
    </contour>
  </outline>
</glyph>
<glyph name="parenleft" format="1">
  <advance width="200"/>
  <unicode hex="0028"/>
  <outline>
    <contour>
      <point x="50" y="560" type="curve"/>
      <point x="50" y="-60" type="line"/>
      <point x="50" y="-150"/>
      <point x="120" y="-200"/>
      <point x="200" y="-200" type="curve"/>
      <point x="200" y="-110" type="line"/>
      <point x="170" y="-110"/>
      <point x="150" y="-100"/>
      <point x="150" y="-60" type="curve" smooth="yes"/>
      <point x="150" y="560" type="line" smooth="yes"/>
      <point x="150" y="600"/>
      <point x="170" y="610"/>
      <point x="200" y="610" type="curve"/>
      <point x="200" y="700" type="line"/>
      <point x="120" y="700"/>
      <point x="50" y="650"/>
    </contour>
  </outline>
</glyph>
<glyph name="three" format="1">
  <advance width="600"/>
  <unicode hex="0033"/>
  <outline>
    <contour>
      <point x="550" y="550" type="curve"/>
      <point x="550" y="560" type="line"/>
      <point x="550" y="650"/>
      <point x="480" y="710"/>
      <point x="300" y="710" type="curve" smooth="yes"/>
      <point x="110" y="710"/>
      <point x="50" y="660"/>
      <point x="50" y="570" type="curve"/>
      <point x="50" y="550" type="line"/>
      <point x="150" y="550" type="line"/>
      <point x="150" y="570" type="line"/>
      <point x="150" y="610"/>
      <point x="170" y="610"/>
      <point x="300" y="610" type="curve" smooth="yes"/>
      <point x="430" y="610"/>
      <point x="450" y="600"/>
      <point x="450" y="560" type="curve" smooth="yes"/>
      <point x="450" y="550" type="line" smooth="yes"/>
      <point x="450" y="510"/>
      <point x="430" y="500"/>
      <point x="300" y="500" type="curve"/>
      <point x="300" y="410" type="line"/>
      <point x="480" y="410"/>
      <point x="550" y="460"/>
    </contour>
    <contour>
      <point x="550" y="350" type="line"/>
      <point x="550" y="440"/>
      <point x="480" y="500"/>
      <point x="300" y="500" type="curve"/>
      <point x="250" y="500" type="line"/>
      <point x="250" y="410" type="line"/>
      <point x="300" y="410" type="line"/>
      <point x="430" y="410"/>
      <point x="450" y="400"/>
      <point x="450" y="360" type="curve"/>
      <point x="450" y="240" type="line" smooth="yes"/>
      <point x="450" y="120"/>
      <point x="430" y="100"/>
      <point x="300" y="100" type="curve"/>
      <point x="300" y="0" type="line"/>
      <point x="330" y="0" type="line" smooth="yes"/>
      <point x="470" y="0"/>
      <point x="550" y="70"/>
      <point x="550" y="220" type="curve"/>
    </contour>
    <contour>
      <point x="270" y="0" type="curve" smooth="yes"/>
      <point x="300" y="0" type="line"/>
      <point x="300" y="100" type="line"/>
      <point x="180" y="100"/>
      <point x="150" y="120"/>
      <point x="150" y="240" type="curve" smooth="yes"/>
      <point x="150" y="250" type="line"/>
      <point x="50" y="250" type="line"/>
      <point x="50" y="220" type="line"/>
      <point x="50" y="70"/>
      <point x="130" y="0"/>
    </contour>
  </outline>
</glyph>
<glyph name="four" format="1">
  <advance width="600"/>
  <unicode hex="0034"/>
  <outline>
    <contour>
      <point x="50" y="200" type="line"/>
      <point x="550" y="200" type="line"/>
      <point x="550" y="300" type="line"/>
      <point x="90" y="300" type="line"/>
      <point x="50" y="270" type="line"/>
    </contour>
    <contour>
      <point x="120" y="220" type="line"/>
      <point x="250" y="325"/>
      <point x="350" y="460"/>
      <point x="350" y="650" type="curve" smooth="yes"/>
      <point x="350" y="700" type="line"/>
      <point x="250" y="700" type="line"/>
      <point x="250" y="650" type="line" smooth="yes"/>
      <point x="250" y="475"/>
      <point x="150" y="365"/>
      <point x="50" y="270" type="curve"/>
    </contour>
    <contour>
      <point x="550" y="0" type="line"/>
      <point x="550" y="525" type="line"/>
      <point x="510" y="525" type="line"/>
      <point x="450" y="475" type="line"/>
      <point x="450" y="0" type="line"/>
    </contour>
  </outline>
</glyph>
<glyph name="six" format="1">
  <advance width="600"/>
  <unicode hex="0036"/>
  <outline>
    <contour>
      <point x="330" y="700" type="curve" smooth="yes"/>
      <point x="300" y="700" type="line"/>
      <point x="300" y="600" type="line"/>
      <point x="420" y="600"/>
      <point x="450" y="580"/>
      <point x="450" y="460" type="curve" smooth="yes"/>
      <point x="450" y="450" type="line"/>
      <point x="550" y="450" type="line"/>
      <point x="550" y="480" type="line"/>
      <point x="550" y="630"/>
      <point x="470" y="700"/>
    </contour>
    <contour>
      <point x="270" y="700" type="line" smooth="yes"/>
      <point x="130" y="700"/>
      <point x="50" y="630"/>
      <point x="50" y="480" type="curve"/>
      <point x="50" y="350" type="line"/>
      <point x="150" y="350" type="line"/>
      <point x="150" y="460" type="line" smooth="yes"/>
      <point x="150" y="580"/>
      <point x="170" y="600"/>
      <point x="300" y="600" type="curve"/>
      <point x="300" y="700" type="line"/>
    </contour>
    <contour>
      <point x="270" y="0" type="curve" smooth="yes"/>
      <point x="300" y="0" type="line"/>
      <point x="300" y="100" type="line"/>
      <point x="170" y="100"/>
      <point x="150" y="115"/>
      <point x="150" y="175" type="curve" smooth="yes"/>
      <point x="150" y="350" type="line"/>
      <point x="50" y="350" type="line"/>
      <point x="50" y="170" type="line"/>
      <point x="50" y="70"/>
      <point x="130" y="0"/>
    </contour>
    <contour>
      <point x="200" y="225" type="curve"/>
      <point x="410" y="225" type="line" smooth="yes"/>
      <point x="450" y="225"/>
      <point x="460" y="205"/>
      <point x="460" y="175" type="curve"/>
      <point x="460" y="115"/>
      <point x="430" y="100"/>
      <point x="300" y="100" type="curve"/>
      <point x="300" y="0" type="line"/>
      <point x="330" y="0" type="line" smooth="yes"/>
      <point x="480" y="0"/>
      <point x="560" y="65"/>
      <point x="560" y="175" type="curve"/>
      <point x="560" y="255"/>
      <point x="500" y="325"/>
      <point x="410" y="325" type="curve" smooth="yes"/>
      <point x="260" y="325" type="line" smooth="yes"/>
      <point x="200" y="325"/>
      <point x="160" y="305"/>
      <point x="150" y="270" type="curve"/>
      <point x="150" y="175" type="line"/>
      <point x="150" y="205"/>
      <point x="160" y="225"/>
    </contour>
  </outline>
</glyph>
<glyph name="eight" format="1">
  <advance width="600"/>
  <unicode hex="0038"/>
  <outline>
    <contour>
      <point x="330" y="500" type="curve" smooth="yes"/>
      <point x="300" y="500" type="line"/>
      <point x="300" y="400" type="line"/>
      <point x="430" y="400"/>
      <point x="450" y="380"/>
      <point x="450" y="260" type="curve" smooth="yes"/>
      <point x="450" y="250" type="line"/>
      <point x="550" y="250" type="line"/>
      <point x="550" y="280" type="line"/>
      <point x="550" y="430"/>
      <point x="470" y="500"/>
    </contour>
    <contour>
      <point x="270" y="500" type="line" smooth="yes"/>
      <point x="130" y="500"/>
      <point x="50" y="430"/>
      <point x="50" y="280" type="curve"/>
      <point x="50" y="250" type="line"/>
      <point x="150" y="250" type="line"/>
      <point x="150" y="260" type="line" smooth="yes"/>
      <point x="150" y="380"/>
      <point x="170" y="400"/>
      <point x="300" y="400" type="curve"/>
      <point x="300" y="500" type="line"/>
    </contour>
    <contour>
      <point x="330" y="0" type="line" smooth="yes"/>
      <point x="470" y="0"/>
      <point x="550" y="70"/>
      <point x="550" y="220" type="curve"/>
      <point x="550" y="250" type="line"/>
      <point x="450" y="250" type="line"/>
      <point x="450" y="240" type="line" smooth="yes"/>
      <point x="450" y="120"/>
      <point x="430" y="100"/>
      <point x="300" y="100" type="curve"/>
      <point x="300" y="0" type="line"/>
    </contour>
    <contour>
      <point x="270" y="0" type="curve" smooth="yes"/>
      <point x="300" y="0" type="line"/>
      <point x="300" y="100" type="line"/>
      <point x="170" y="100"/>
      <point x="150" y="120"/>
      <point x="150" y="240" type="curve" smooth="yes"/>
      <point x="150" y="250" type="line"/>
      <point x="50" y="250" type="line"/>
      <point x="50" y="220" type="line"/>
      <point x="50" y="70"/>
      <point x="130" y="0"/>
    </contour>
    <contour>
      <point x="200" y="600" type="curve" smooth="yes"/>
      <point x="400" y="600" type="line" smooth="yes"/>
      <point x="440" y="600"/>
      <point x="450" y="580"/>
      <point x="450" y="550" type="curve"/>
      <point x="450" y="520"/>
      <point x="440" y="500"/>
      <point x="400" y="500" type="curve" smooth="yes"/>
      <point x="200" y="500" type="line" smooth="yes"/>
      <point x="160" y="500"/>
      <point x="150" y="520"/>
      <point x="150" y="550" type="curve"/>
      <point x="150" y="580"/>
      <point x="160" y="600"/>
    </contour>
    <contour>
      <point x="400" y="700" type="curve" smooth="yes"/>
      <point x="200" y="700" type="line"/>
      <point x="110" y="700"/>
      <point x="50" y="630"/>
      <point x="50" y="550" type="curve"/>
      <point x="50" y="470"/>
      <point x="110" y="400"/>
      <point x="200" y="400" type="curve"/>
      <point x="400" y="400" type="line"/>
      <point x="490" y="400"/>
      <point x="550" y="470"/>
      <point x="550" y="550" type="curve"/>
      <point x="550" y="630"/>
      <point x="490" y="700"/>
    </contour>
  </outline>
</glyph>
<glyph name="colon" format="1">
  <advance width="200"/>
  <unicode hex="003A"/>
  <outline>
    <contour>
      <point x="50" y="0" type="line"/>
      <point x="150" y="0" type="line"/>
      <point x="150" y="100" type="line"/>
      <point x="50" y="100" type="line"/>
    </contour>
    <contour>
      <point x="50" y="400" type="line"/>
      <point x="150" y="400" type="line"/>
      <point x="150" y="500" type="line"/>
      <point x="50" y="500" type="line"/>
    </contour>
  </outline>
</glyph>
<glyph name="greater" format="1">
  <advance width="400"/>
  <unicode hex="003E"/>
  <outline>
    <contour>
      <point x="375" y="265" type="line"/>
      <point x="140" y="500" type="line"/>
      <point x="10" y="500" type="line"/>
      <point x="10" y="485" type="line"/>
      <point x="225" y="275" type="line"/>
      <point x="260" y="255" type="line"/>
      <point x="375" y="240" type="line"/>
    </contour>
    <contour>
      <point x="375" y="235" type="line"/>
      <point x="375" y="260" type="line"/>
      <point x="260" y="270" type="line"/>
      <point x="260" y="245" type="line"/>
      <point x="225" y="225" type="line"/>
      <point x="10" y="15" type="line"/>
      <point x="10" y="0" type="line"/>
      <point x="140" y="0" type="line"/>
    </contour>
  </outline>
</glyph>
<glyph name="A" format="1">
  <advance width="600"/>
  <unicode hex="0041"/>
  <outline>
    <contour>
      <point x="500" y="200" type="line"/>
      <point x="500" y="300" type="line"/>
      <point x="100" y="300" type="line"/>
      <point x="100" y="200" type="line"/>
    </contour>
    <contour>
      <point x="250" y="700" type="line"/>
      <point x="90" y="600"/>
      <point x="50" y="410"/>
      <point x="50" y="200" type="curve" smooth="yes"/>
      <point x="50" y="0" type="line"/>
      <point x="150" y="0" type="line"/>
      <point x="150" y="200" type="line" smooth="yes"/>
      <point x="150" y="420"/>
      <point x="190" y="540"/>
      <point x="320" y="630" type="curve"/>
    </contour>
    <contour>
      <point x="350" y="700" type="curve"/>
      <point x="250" y="700" type="line"/>
      <point x="280" y="630" type="line"/>
      <point x="410" y="540"/>
      <point x="450" y="420"/>
      <point x="450" y="200" type="curve" smooth="yes"/>
      <point x="450" y="0" type="line"/>
      <point x="550" y="0" type="line"/>
      <point x="550" y="200" type="line" smooth="yes"/>
      <point x="550" y="410"/>
      <point x="510" y="600"/>
    </contour>
    <contour>
      <point x="300" y="650" type="move" name="top"/>
    </contour>
  </outline>
</glyph>
<glyph name="B" format="1">
  <advance width="600"/>
  <unicode hex="0042"/>
  <outline>
    <contour>
      <point x="400" y="700" type="curve"/>
      <point x="110" y="700" type="line"/>
      <point x="110" y="600" type="line"/>
      <point x="400" y="600" type="line"/>
      <point x="430" y="600"/>
      <point x="450" y="590"/>
      <point x="450" y="550" type="curve"/>
      <point x="550" y="550" type="line"/>
      <point x="550" y="640"/>
      <point x="480" y="700"/>
    </contour>
    <contour>
      <point x="400" y="500" type="curve"/>
      <point x="130" y="500" type="line"/>
      <point x="100" y="400" type="line"/>
      <point x="400" y="400" type="line"/>
      <point x="480" y="400"/>
      <point x="550" y="460"/>
      <point x="550" y="550" type="curve"/>
      <point x="450" y="550" type="line" smooth="yes"/>
      <point x="450" y="510"/>
      <point x="430" y="500"/>
    </contour>
    <contour>
      <point x="150" y="0" type="line"/>
      <point x="150" y="700" type="line"/>
      <point x="50" y="700" type="line"/>
      <point x="50" y="0" type="line"/>
    </contour>
    <contour>
      <point x="330" y="500" type="curve" smooth="yes"/>
      <point x="110" y="500" type="line"/>
      <point x="110" y="400" type="line"/>
      <point x="300" y="400" type="line"/>
      <point x="410" y="400"/>
      <point x="450" y="380"/>
      <point x="450" y="260" type="curve" smooth="yes"/>
      <point x="450" y="250" type="line"/>
      <point x="550" y="250" type="line"/>
      <point x="550" y="280" type="line"/>
      <point x="550" y="430"/>
      <point x="470" y="500"/>
    </contour>
    <contour>
      <point x="330" y="0" type="line" smooth="yes"/>
      <point x="470" y="0"/>
      <point x="550" y="70"/>
      <point x="550" y="220" type="curve"/>
      <point x="550" y="250" type="line"/>
      <point x="450" y="250" type="line"/>
      <point x="450" y="240" type="line" smooth="yes"/>
      <point x="450" y="120"/>
      <point x="410" y="100"/>
      <point x="300" y="100" type="curve"/>
      <point x="110" y="100" type="line"/>
      <point x="110" y="0" type="line"/>
    </contour>
  </outline>
</glyph>
<glyph name="D" format="1">
  <advance width="600"/>
  <unicode hex="0044"/>
  <outline>
    <contour>
      <point x="150" y="0" type="line"/>
      <point x="150" y="700" type="line"/>
      <point x="50" y="700" type="line"/>
      <point x="50" y="0" type="line"/>
    </contour>
    <contour>
      <point x="330.0" y="700.0" type="curve" smooth="yes"/>
      <point x="110" y="700" type="line"/>
      <point x="110" y="600" type="line"/>
      <point x="300.0" y="600.0" type="line"/>
      <point x="410.0" y="600.0"/>
      <point x="450.0" y="580.0"/>
      <point x="450.0" y="460.0" type="curve" smooth="yes"/>
      <point x="450.0" y="350.0" type="line"/>
      <point x="550.0" y="350.0" type="line"/>
      <point x="550.0" y="480.0" type="line"/>
      <point x="550.0" y="630.0"/>
      <point x="470" y="700"/>
    </contour>
    <contour>
      <point x="330.0" y="0.0" type="line" smooth="yes"/>
      <point x="470" y="0"/>
      <point x="550.0" y="70.0"/>
      <point x="550.0" y="220.0" type="curve"/>
      <point x="550.0" y="350.0" type="line"/>
      <point x="450.0" y="350.0" type="line"/>
      <point x="450.0" y="240.0" type="line" smooth="yes"/>
      <point x="450.0" y="120.0"/>
      <point x="410.0" y="100.0"/>
      <point x="300.0" y="100.0" type="curve"/>
      <point x="110" y="100" type="line"/>
      <point x="110" y="0" type="line"/>
    </contour>
  </outline>
</glyph>
<glyph name="K" format="1">
  <advance width="600"/>
  <unicode hex="004B"/>
  <outline>
    <contour>
      <point x="50" y="0" type="line"/>
      <point x="150" y="0" type="line"/>
      <point x="150" y="700" type="line"/>
      <point x="50" y="700" type="line"/>
    </contour>
    <contour>
      <point x="130" y="400" type="line"/>
      <point x="250" y="400" type="line"/>
      <point x="250" y="500" type="line"/>
      <point x="130" y="500" type="line"/>
    </contour>
    <contour>
      <point x="340" y="470" type="curve"/>
      <point x="225" y="500" type="line"/>
      <point x="225" y="400" type="line"/>
      <point x="340" y="400" type="line"/>
      <point x="420" y="400"/>
      <point x="430" y="390"/>
      <point x="440" y="300" type="curve" smooth="yes"/>
      <point x="460" y="0" type="line"/>
      <point x="560" y="0" type="line"/>
      <point x="540" y="300" type="line" smooth="yes"/>
      <point x="530" y="420"/>
      <point x="470" y="470"/>
    </contour>
    <contour>
      <point x="340" y="430" type="line"/>
      <point x="470" y="430"/>
      <point x="530" y="480"/>
      <point x="540" y="600" type="curve" smooth="yes"/>
      <point x="550" y="700" type="line"/>
      <point x="450" y="700" type="line"/>
      <point x="440" y="600" type="line" smooth="yes"/>
      <point x="430" y="510"/>
      <point x="420" y="500"/>
      <point x="340" y="500" type="curve"/>
      <point x="225" y="500" type="line"/>
      <point x="225" y="400" type="line"/>
    </contour>
  </outline>
</glyph>
<glyph name="R" format="1">
  <advance width="600"/>
  <unicode hex="0052"/>
  <outline>
    <contour>
      <point x="400" y="700" type="curve"/>
      <point x="110" y="700" type="line"/>
      <point x="110" y="600" type="line"/>
      <point x="400" y="600" type="line"/>
      <point x="430" y="600"/>
      <point x="450" y="590"/>
      <point x="450" y="550" type="curve"/>
      <point x="550" y="550" type="line"/>
      <point x="550" y="640"/>
      <point x="480" y="700"/>
    </contour>
    <contour>
      <point x="400" y="500" type="curve"/>
      <point x="130" y="500" type="line"/>
      <point x="100" y="400" type="line"/>
      <point x="400" y="400" type="line"/>
      <point x="480" y="400"/>
      <point x="550" y="460"/>
      <point x="550" y="550" type="curve"/>
      <point x="450" y="550" type="line" smooth="yes"/>
      <point x="450" y="510"/>
      <point x="430" y="500"/>
    </contour>
    <contour>
      <point x="150" y="0" type="line"/>
      <point x="150" y="700" type="line"/>
      <point x="50" y="700" type="line"/>
      <point x="50" y="0" type="line"/>
    </contour>
    <contour>
      <point x="340" y="470" type="curve"/>
      <point x="300" y="500" type="line"/>
      <point x="300" y="400" type="line"/>
      <point x="340" y="400" type="line"/>
      <point x="420" y="400"/>
      <point x="430" y="390"/>
      <point x="440" y="300" type="curve" smooth="yes"/>
      <point x="460" y="0" type="line"/>
      <point x="560" y="0" type="line"/>
      <point x="540" y="300" type="line" smooth="yes"/>
      <point x="530" y="420"/>
      <point x="470" y="470"/>
    </contour>
  </outline>
</glyph>
<glyph name="T" format="1">
  <advance width="600"/>
  <unicode hex="0054"/>
  <outline>
    <contour>
      <point x="250" y="0" type="line"/>
      <point x="350" y="0" type="line"/>
      <point x="350" y="700" type="line"/>
      <point x="250" y="700" type="line"/>
    </contour>
    <contour>
      <point x="25" y="600" type="line"/>
      <point x="575" y="600" type="line"/>
      <point x="575" y="700" type="line"/>
      <point x="25" y="700" type="line"/>
    </contour>
  </outline>
</glyph>
<glyph name="U" format="1">
  <advance width="600"/>
  <unicode hex="0055"/>
  <outline>
    <contour>
      <point x="330" y="0" type="line" smooth="yes"/>
      <point x="470" y="0"/>
      <point x="550" y="70"/>
      <point x="550" y="220" type="curve"/>
      <point x="550" y="700" type="line"/>
      <point x="450" y="700" type="line"/>
      <point x="450" y="240" type="line" smooth="yes"/>
      <point x="450" y="120"/>
      <point x="410" y="100"/>
      <point x="300" y="100" type="curve"/>
      <point x="300" y="0" type="line"/>
    </contour>
    <contour>
      <point x="270" y="0" type="curve" smooth="yes"/>
      <point x="300" y="0" type="line"/>
      <point x="300" y="100" type="line"/>
      <point x="190" y="100"/>
      <point x="150" y="120"/>
      <point x="150" y="240" type="curve" smooth="yes"/>
      <point x="150" y="700" type="line"/>
      <point x="50" y="700" type="line"/>
      <point x="50" y="220" type="line"/>
      <point x="50" y="70"/>
      <point x="130" y="0"/>
    </contour>
    <contour>
      <point x="300" y="650" type="move" name="top"/>
    </contour>
  </outline>
</glyph>
<glyph name="Y" format="1">
  <advance width="600"/>
  <unicode hex="0059"/>
  <outline>
    <contour>
      <point x="250" y="0" type="line"/>
      <point x="350" y="0" type="line"/>
      <point x="350" y="320" type="line"/>
      <point x="250" y="320" type="line"/>
    </contour>
    <contour>
      <point x="250" y="250" type="curve"/>
      <point x="340" y="300" type="line"/>
      <point x="190" y="400"/>
      <point x="150" y="530"/>
      <point x="150" y="650" type="curve" smooth="yes"/>
      <point x="150" y="700" type="line"/>
      <point x="50" y="700" type="line"/>
      <point x="50" y="650" type="line" smooth="yes"/>
      <point x="50" y="540"/>
      <point x="90" y="350"/>
    </contour>
    <contour>
      <point x="350" y="250" type="line"/>
      <point x="510" y="350"/>
      <point x="550" y="540"/>
      <point x="550" y="650" type="curve" smooth="yes"/>
      <point x="550" y="700" type="line"/>
      <point x="450" y="700" type="line"/>
      <point x="450" y="650" type="line" smooth="yes"/>
      <point x="450" y="530"/>
      <point x="410" y="400"/>
      <point x="260" y="300" type="curve"/>
      <point x="250" y="250" type="line"/>
    </contour>
    <contour>
      <point x="300" y="650" type="move" name="top"/>
    </contour>
  </outline>
</glyph>
<glyph name="a" format="1">
  <advance width="600"/>
  <unicode hex="0061"/>
  <outline>
    <contour>
      <point x="50" y="350" type="curve"/>
      <point x="50" y="330" type="line"/>
      <point x="150" y="330" type="line"/>
      <point x="150" y="350" type="line"/>
      <point x="150" y="400"/>
      <point x="170" y="410"/>
      <point x="300" y="410" type="curve" smooth="yes"/>
      <point x="430" y="410"/>
      <point x="450" y="390"/>
      <point x="450" y="330" type="curve" smooth="yes"/>
      <point x="450" y="220" type="line"/>
      <point x="550" y="250" type="line"/>
      <point x="550" y="330" type="line"/>
      <point x="550" y="440"/>
      <point x="480" y="510"/>
      <point x="300" y="510" type="curve" smooth="yes"/>
      <point x="110" y="510"/>
      <point x="50" y="450"/>
    </contour>
    <contour>
      <point x="550" y="250" type="line"/>
      <point x="450" y="250" type="line"/>
      <point x="450" y="80" type="line"/>
      <point x="455" y="65" type="line"/>
      <point x="465" y="0" type="line"/>
      <point x="550" y="0" type="line"/>
    </contour>
    <contour>
      <point x="40" y="140" type="curve"/>
      <point x="40" y="30"/>
      <point x="110" y="-10"/>
      <point x="260" y="-10" type="curve" smooth="yes"/>
      <point x="350" y="-10"/>
      <point x="415" y="25"/>
      <point x="445" y="70" type="curve"/>
      <point x="455" y="65" type="line"/>
      <point x="450" y="180" type="line"/>
      <point x="450" y="110"/>
      <point x="420" y="90"/>
      <point x="260" y="90" type="curve"/>
      <point x="160" y="90"/>
      <point x="140" y="100"/>
      <point x="140" y="140" type="curve"/>
      <point x="140" y="190"/>
      <point x="190" y="200"/>
      <point x="450" y="210" type="curve"/>
      <point x="450" y="300" type="line"/>
      <point x="130" y="290"/>
      <point x="40" y="260"/>
    </contour>
    <contour>
      <point x="300.0" y="500.0" type="move" name="top"/>
    </contour>
  </outline>
</glyph>
<glyph name="m" format="1">
  <advance width="600"/>
  <unicode hex="006D"/>
  <outline>
    <contour>
      <point x="50" y="0" type="line"/>
      <point x="150" y="0" type="line"/>
      <point x="150" y="470" type="line"/>
      <point x="140" y="500" type="line"/>
      <point x="50" y="500" type="line"/>
    </contour>
    <contour>
      <point x="150" y="470" type="curve"/>
      <point x="150" y="360" type="line"/>
      <point x="150" y="400"/>
      <point x="170" y="410"/>
      <point x="200" y="410" type="curve" smooth="yes"/>
      <point x="230" y="410"/>
      <point x="250" y="400"/>
      <point x="250" y="360" type="curve"/>
      <point x="250" y="0" type="line"/>
      <point x="350" y="0" type="line"/>
      <point x="350" y="390" type="line"/>
      <point x="350" y="460"/>
      <point x="300" y="510"/>
      <point x="230" y="510" type="curve" smooth="yes"/>
      <point x="180" y="510"/>
      <point x="160" y="490"/>
    </contour>
    <contour>
      <point x="330" y="450" type="curve"/>
      <point x="350" y="360" type="line"/>
      <point x="350" y="400"/>
      <point x="370" y="410"/>
      <point x="400" y="410" type="curve" smooth="yes"/>
      <point x="430" y="410"/>
      <point x="450" y="400"/>
      <point x="450" y="360" type="curve"/>
      <point x="450" y="0" type="line"/>
      <point x="550" y="0" type="line"/>
      <point x="550" y="390" type="line"/>
      <point x="550" y="460"/>
      <point x="500" y="510"/>
      <point x="430" y="510" type="curve" smooth="yes"/>
      <point x="380" y="510"/>
      <point x="350" y="490"/>
    </contour>
  </outline>
</glyph>
<glyph name="n" format="1">
  <advance width="800"/>
  <unicode hex="006E"/>
  <outline>
    <contour>
      <point x="50" y="0" type="line"/>
      <point x="150" y="0" type="line"/>
      <point x="150" y="370" type="line"/>
      <point x="140" y="500" type="line"/>
      <point x="50" y="500" type="line"/>
    </contour>
    <contour>
      <point x="150" y="370" type="curve"/>
      <point x="150" y="210" type="line"/>
      <point x="150" y="310"/>
      <point x="220" y="410"/>
      <point x="400" y="410" type="curve" smooth="yes"/>
      <point x="610" y="410"/>
      <point x="650" y="330"/>
      <point x="650" y="210" type="curve"/>
      <point x="650" y="0" type="line"/>
      <point x="750" y="0" type="line"/>
      <point x="750" y="240" type="line"/>
      <point x="750" y="390"/>
      <point x="680" y="510"/>
      <point x="430" y="510" type="curve" smooth="yes"/>
      <point x="210" y="510"/>
      <point x="160" y="420"/>
    </contour>
    <contour>
      <point x="300.0" y="500.0" type="move" name="top"/>
    </contour>
  </outline>
</glyph>
<glyph name="o" format="1">
  <advance width="800"/>
  <unicode hex="006F"/>
  <outline>
    <contour>
      <point x="400" y="410" type="curve"/>
      <point x="600" y="410"/>
      <point x="655" y="370"/>
      <point x="655" y="250" type="curve"/>
      <point x="755" y="250" type="line"/>
      <point x="755" y="420"/>
      <point x="660" y="510"/>
      <point x="400" y="510" type="curve"/>
      <point x="140" y="510"/>
      <point x="45" y="420"/>
      <point x="45" y="250" type="curve"/>
      <point x="145" y="250" type="line"/>
      <point x="145" y="370"/>
      <point x="200" y="410"/>
    </contour>
    <contour>
      <point x="400" y="90" type="curve"/>
      <point x="200" y="90"/>
      <point x="145" y="130"/>
      <point x="145" y="250" type="curve"/>
      <point x="45" y="250" type="line"/>
      <point x="45" y="80"/>
      <point x="140" y="-10"/>
      <point x="400" y="-10" type="curve"/>
      <point x="660" y="-10"/>
      <point x="755" y="80"/>
      <point x="755" y="250" type="curve"/>
      <point x="655" y="250" type="line"/>
      <point x="655" y="130"/>
      <point x="600" y="90"/>
    </contour>
    <contour>
      <point x="300.0" y="500.0" type="move" name="top"/>
    </contour>
  </outline>
</glyph>
<glyph name="t" format="1">
  <advance width="400"/>
  <unicode hex="0074"/>
  <outline>
    <contour>
      <point x="350" y="100" type="line"/>
      <point x="200" y="100" type="line"/>
      <point x="170" y="100"/>
      <point x="150" y="110"/>
      <point x="150" y="150" type="curve"/>
      <point x="150" y="400" type="line"/>
      <point x="350" y="400" type="line"/>
      <point x="350" y="500" type="line"/>
      <point x="150" y="500" type="line"/>
      <point x="150" y="600" type="line"/>
      <point x="70" y="600" type="line"/>
      <point x="50" y="500" type="line"/>
      <point x="50" y="150" type="line"/>
      <point x="50" y="50"/>
      <point x="100" y="0"/>
      <point x="200" y="0" type="curve"/>
      <point x="350" y="0" type="line"/>
    </contour>
  </outline>
</glyph>
<glyph name="v" format="1">
  <advance width="600"/>
  <unicode hex="0076"/>
  <outline>
    <contour>
      <point x="250" y="0" type="curve"/>
      <point x="340" y="50" type="line"/>
      <point x="190" y="150"/>
      <point x="150" y="250"/>
      <point x="150" y="400" type="curve" smooth="yes"/>
      <point x="150" y="500" type="line"/>
      <point x="50" y="500" type="line"/>
      <point x="50" y="400" type="line" smooth="yes"/>
      <point x="50" y="250"/>
      <point x="90" y="100"/>
    </contour>
    <contour>
      <point x="350" y="0" type="line"/>
      <point x="510" y="100"/>
      <point x="550" y="250"/>
      <point x="550" y="400" type="curve" smooth="yes"/>
      <point x="550" y="500" type="line"/>
      <point x="450" y="500" type="line"/>
      <point x="450" y="400" type="line" smooth="yes"/>
      <point x="450" y="250"/>
      <point x="410" y="150"/>
      <point x="260" y="50" type="curve"/>
      <point x="250" y="0" type="line"/>
    </contour>
  </outline>
</glyph>
<glyph name="z" format="1">
  <advance width="600"/>
  <unicode hex="007A"/>
  <outline>
    <contour>
      <point x="50" y="400" type="line"/>
      <point x="510" y="400" type="line"/>
      <point x="550" y="430" type="line"/>
      <point x="550" y="500" type="line"/>
      <point x="50" y="500" type="line"/>
    </contour>
    <contour>
      <point x="50" y="0" type="line"/>
      <point x="550" y="0" type="line"/>
      <point x="550" y="100" type="line"/>
      <point x="90" y="100" type="line"/>
      <point x="50" y="70" type="line"/>
    </contour>
    <contour>
      <point x="120" y="0" type="line"/>
      <point x="550" y="430" type="line"/>
      <point x="470" y="490" type="line"/>
      <point x="50" y="70" type="line"/>
    </contour>
  </outline>
</glyph>
<glyph name="brokenbar" format="1">
  <advance width="200"/>
  <unicode hex="00A6"/>
  <outline>
    <contour>
      <point x="50" y="400" type="line"/>
      <point x="150" y="400" type="line"/>
      <point x="150" y="700" type="line"/>
      <point x="50" y="700" type="line"/>
    </contour>
    <contour>
      <point x="50" y="0" type="line"/>
      <point x="150" y="0" type="line"/>
      <point x="150" y="300" type="line"/>
      <point x="50" y="300" type="line"/>
    </contour>
  </outline>
</glyph>
<glyph name="dieresis" format="1">
  <advance width="200"/>
  <unicode hex="00A8"/>
  <outline>
    <contour>
      <point x="0" y="600" type="line"/>
      <point x="80" y="600" type="line"/>
      <point x="80" y="700" type="line"/>
      <point x="-10" y="700" type="line"/>
    </contour>
    <contour>
      <point x="120" y="600" type="line"/>
      <point x="200" y="600" type="line"/>
      <point x="210" y="700" type="line"/>
      <point x="120" y="700" type="line"/>
    </contour>
    <contour>
      <point x="100" y="500" type="move" name="_top"/>
    </contour>
  </outline>
</glyph>
<glyph name="registered" format="1">
  <advance width="800"/>
  <unicode hex="00AE"/>
  <outline>
    <contour>
      <point x="430" y="0" type="line" smooth="yes"/>
      <point x="640" y="0"/>
      <point x="750" y="110"/>
      <point x="750" y="270" type="curve"/>
      <point x="750" y="350" type="line"/>
      <point x="650" y="350" type="line"/>
      <point x="650" y="290" type="line" smooth="yes"/>
      <point x="650" y="160"/>
      <point x="600" y="100"/>
      <point x="400" y="100" type="curve"/>
      <point x="400" y="0" type="line"/>
    </contour>
    <contour>
      <point x="370" y="700" type="line" smooth="yes"/>
      <point x="160" y="700"/>
      <point x="50" y="590"/>
      <point x="50" y="430" type="curve"/>
      <point x="50" y="350" type="line"/>
      <point x="150" y="350" type="line"/>
      <point x="150" y="410" type="line" smooth="yes"/>
      <point x="150" y="540"/>
      <point x="200" y="600"/>
      <point x="400" y="600" type="curve"/>
      <point x="400" y="700" type="line"/>
    </contour>
    <contour>
      <point x="370" y="0" type="curve" smooth="yes"/>
      <point x="400" y="0" type="line"/>
      <point x="400" y="100" type="line"/>
      <point x="200" y="100"/>
      <point x="150" y="160"/>
      <point x="150" y="290" type="curve" smooth="yes"/>
      <point x="150" y="350" type="line"/>
      <point x="50" y="350" type="line"/>
      <point x="50" y="270" type="line"/>
      <point x="50" y="110"/>
      <point x="160" y="0"/>
    </contour>
    <contour>
      <point x="350" y="200" type="line"/>
      <point x="350" y="500" type="line"/>
      <point x="250" y="500" type="line"/>
      <point x="250" y="200" type="line"/>
    </contour>
    <contour>
      <point x="430" y="700" type="curve" smooth="yes"/>
      <point x="400" y="700" type="line"/>
      <point x="400" y="600" type="line"/>
      <point x="600" y="600"/>
      <point x="650" y="540"/>
      <point x="650" y="410" type="curve" smooth="yes"/>
      <point x="650" y="350" type="line"/>
      <point x="750" y="350" type="line"/>
      <point x="750" y="430" type="line"/>
      <point x="750" y="590"/>
      <point x="640" y="700"/>
    </contour>
    <contour>
      <point x="450" y="370" type="curve"/>
      <point x="450" y="340"/>
      <point x="440" y="330"/>
      <point x="400" y="330" type="curve"/>
      <point x="340" y="330" type="line"/>
      <point x="330" y="250" type="line"/>
      <point x="385" y="250" type="line"/>
      <point x="420" y="250"/>
      <point x="440" y="235"/>
      <point x="450" y="200" type="curve"/>
      <point x="550" y="200" type="line"/>
      <point x="550" y="245"/>
      <point x="535" y="275"/>
      <point x="480" y="280" type="curve"/>
      <point x="480" y="290" type="line"/>
      <point x="520" y="300"/>
      <point x="550" y="335"/>
      <point x="550" y="380" type="curve"/>
      <point x="550" y="460"/>
      <point x="500" y="500"/>
      <point x="400" y="500" type="curve"/>
      <point x="310" y="500" type="line"/>
      <point x="310" y="410" type="line"/>
      <point x="400" y="410" type="line"/>
      <point x="440" y="410"/>
      <point x="450" y="400"/>
    </contour>
    <contour>
      <point x="300.0" y="650.0" type="move" name="top"/>
    </contour>
  </outline>
</glyph>
<glyph name="Oslash" format="1">
  <advance width="600"/>
  <unicode hex="00D8"/>
  <outline>
    <contour>
      <point x="50" y="0" type="line"/>
      <point x="130" y="-50" type="line"/>
      <point x="550" y="700" type="line"/>
      <point x="470" y="750" type="line"/>
    </contour>
    <component base="O"/>
  </outline>
</glyph>
<glyph name="oslash" format="1">
  <advance width="600"/>
  <unicode hex="00F8"/>
  <outline>
    <contour>
      <point x="50" y="0" type="line"/>
      <point x="130" y="-60" type="line"/>
      <point x="550" y="500" type="line"/>
      <point x="470" y="560" type="line"/>
    </contour>
    <component base="o"/>
  </outline>
</glyph>
<glyph name="IJ" format="1">
  <advance width="400"/>
  <unicode hex="0132"/>
  <outline>
    <contour>
      <point x="50" y="130" type="line"/>
      <point x="50" y="40"/>
      <point x="110" y="-10"/>
      <point x="200" y="-10" type="curve" smooth="yes"/>
      <point x="280" y="-10"/>
      <point x="350" y="50"/>
      <point x="350" y="140" type="curve"/>
      <point x="350" y="700" type="line"/>
      <point x="250" y="700" type="line"/>
      <point x="250" y="140" type="line" smooth="yes"/>
      <point x="250" y="100"/>
      <point x="230" y="90"/>
      <point x="200" y="90" type="curve" smooth="yes"/>
      <point x="170" y="90"/>
      <point x="150" y="90"/>
      <point x="150" y="130" type="curve"/>
      <point x="150" y="200" type="line"/>
      <point x="50" y="200" type="line"/>
    </contour>
    <contour>
      <point x="50" y="300" type="line"/>
      <point x="150" y="300" type="line"/>
      <point x="150" y="700" type="line"/>
      <point x="50" y="700" type="line"/>
    </contour>
    <contour>
      <point x="100" y="650" type="move" name="top"/>
    </contour>
  </outline>
</glyph>
<glyph name="oe" format="1">
  <advance width="1000"/>
  <unicode hex="0153"/>
  <outline>
    <contour>
      <point x="550" y="310" type="line" smooth="yes"/>
      <point x="550" y="390"/>
      <point x="570" y="410"/>
      <point x="700" y="410" type="curve" smooth="yes"/>
      <point x="830" y="410"/>
      <point x="850" y="390"/>
      <point x="850" y="310" type="curve"/>
      <point x="850" y="300" type="line"/>
      <point x="550" y="300" type="line"/>
    </contour>
    <contour>
      <point x="50" y="290" type="curve"/>
      <point x="50" y="210" type="line"/>
      <point x="50" y="80"/>
      <point x="110" y="-10"/>
      <point x="300" y="-10" type="curve"/>
      <point x="400" y="-10"/>
      <point x="460" y="10"/>
      <point x="500" y="60" type="curve"/>
      <point x="540" y="10"/>
      <point x="600" y="-10"/>
      <point x="700" y="-10" type="curve" smooth="yes"/>
      <point x="890" y="-10"/>
      <point x="950" y="40"/>
      <point x="950" y="130" type="curve"/>
      <point x="950" y="150" type="line"/>
      <point x="850" y="150" type="line"/>
      <point x="850" y="130" type="line"/>
      <point x="850" y="100"/>
      <point x="830" y="90"/>
      <point x="700" y="90" type="curve" smooth="yes"/>
      <point x="570" y="90"/>
      <point x="550" y="110"/>
      <point x="550" y="190" type="curve" smooth="yes"/>
      <point x="550" y="200" type="line"/>
      <point x="950" y="200" type="line"/>
      <point x="950" y="310" type="line"/>
      <point x="950" y="440"/>
      <point x="880" y="510"/>
      <point x="700" y="510" type="curve" smooth="yes"/>
      <point x="600" y="510"/>
      <point x="540" y="490"/>
      <point x="500" y="440" type="curve"/>
      <point x="460" y="490"/>
      <point x="400" y="510"/>
      <point x="300" y="510" type="curve"/>
      <point x="110" y="510"/>
      <point x="50" y="420"/>
    </contour>
    <contour>
      <point x="150" y="210" type="curve" smooth="yes"/>
      <point x="150" y="290" type="line" smooth="yes"/>
      <point x="150" y="370"/>
      <point x="170" y="410"/>
      <point x="300" y="410" type="curve"/>
      <point x="430" y="410"/>
      <point x="450" y="370"/>
      <point x="450" y="290" type="curve" smooth="yes"/>
      <point x="450" y="210" type="line" smooth="yes"/>
      <point x="450" y="130"/>
      <point x="430" y="90"/>
      <point x="300" y="90" type="curve"/>
      <point x="170" y="90"/>
      <point x="150" y="130"/>
    </contour>
    <contour>
      <point x="300.0" y="500.0" type="move" name="top"/>
    </contour>
    <contour>
      <point x="700.0" y="500.0" type="move" name="top"/>
    </contour>
  </outline>
</glyph>
<glyph name="perthousand" format="1">
  <advance width="1000"/>
  <unicode hex="2030"/>
  <outline>
    <contour>
      <point x="100" y="0" type="line"/>
      <point x="220" y="0" type="line"/>
      <point x="700" y="700" type="line"/>
      <point x="580" y="700" type="line"/>
    </contour>
    <contour>
      <point x="260" y="560" type="curve" smooth="yes"/>
      <point x="260" y="540" type="line" smooth="yes"/>
      <point x="260" y="500"/>
      <point x="240" y="480"/>
      <point x="200" y="480" type="curve"/>
      <point x="160" y="480"/>
      <point x="140" y="500"/>
      <point x="140" y="540" type="curve" smooth="yes"/>
      <point x="140" y="560" type="line" smooth="yes"/>
      <point x="140" y="600"/>
      <point x="160" y="620"/>
      <point x="200" y="620" type="curve"/>
      <point x="240" y="620"/>
      <point x="260" y="600"/>
    </contour>
    <contour>
      <point x="350" y="540" type="curve"/>
      <point x="350" y="560" type="line"/>
      <point x="350" y="650"/>
      <point x="280" y="710"/>
      <point x="200" y="710" type="curve"/>
      <point x="120" y="710"/>
      <point x="50" y="650"/>
      <point x="50" y="560" type="curve"/>
      <point x="50" y="540" type="line"/>
      <point x="50" y="450"/>
      <point x="120" y="390"/>
      <point x="200" y="390" type="curve"/>
      <point x="280" y="390"/>
      <point x="350" y="450"/>
    </contour>
    <contour>
      <point x="800" y="-10" type="curve"/>
      <point x="880" y="-10"/>
      <point x="950" y="50"/>
      <point x="950" y="140" type="curve"/>
      <point x="950" y="160" type="line"/>
      <point x="950" y="250"/>
      <point x="880" y="310"/>
      <point x="800" y="310" type="curve"/>
      <point x="760" y="310"/>
      <point x="725" y="295"/>
      <point x="700" y="265" type="curve"/>
      <point x="675" y="295"/>
      <point x="640" y="310"/>
      <point x="600" y="310" type="curve"/>
      <point x="520" y="310"/>
      <point x="450" y="250"/>
      <point x="450" y="160" type="curve"/>
      <point x="450" y="140" type="line"/>
      <point x="450" y="50"/>
      <point x="520" y="-10"/>
      <point x="600" y="-10" type="curve"/>
      <point x="640" y="-10"/>
      <point x="675" y="5"/>
      <point x="700" y="35" type="curve"/>
      <point x="725" y="5"/>
      <point x="760" y="-10"/>
    </contour>
    <contour>
      <point x="860" y="160" type="curve" smooth="yes"/>
      <point x="860" y="140" type="line" smooth="yes"/>
      <point x="860" y="100"/>
      <point x="840" y="80"/>
      <point x="800" y="80" type="curve"/>
      <point x="760" y="80"/>
      <point x="745" y="100"/>
      <point x="745" y="140" type="curve" smooth="yes"/>
      <point x="745" y="160" type="line" smooth="yes"/>
      <point x="745" y="200"/>
      <point x="760" y="220"/>
      <point x="800" y="220" type="curve"/>
      <point x="840" y="220"/>
      <point x="860" y="200"/>
    </contour>
    <contour>
      <point x="655" y="160" type="curve" smooth="yes"/>
      <point x="655" y="140" type="line" smooth="yes"/>
      <point x="655" y="100"/>
      <point x="640" y="80"/>
      <point x="600" y="80" type="curve"/>
      <point x="560" y="80"/>
      <point x="540" y="100"/>
      <point x="540" y="140" type="curve" smooth="yes"/>
      <point x="540" y="160" type="line" smooth="yes"/>
      <point x="540" y="200"/>
      <point x="560" y="220"/>
      <point x="600" y="220" type="curve"/>
      <point x="640" y="220"/>
      <point x="655" y="200"/>
    </contour>
  </outline>
</glyph>
<glyph name="Euro" format="1">
  <advance width="600"/>
  <unicode hex="20AC"/>
  <outline>
    <contour>
      <point x="330" y="700" type="curve" smooth="yes"/>
      <point x="300" y="700" type="line"/>
      <point x="300" y="600" type="line"/>
      <point x="420" y="600"/>
      <point x="450" y="580"/>
      <point x="450" y="460" type="curve" smooth="yes"/>
      <point x="450" y="450" type="line"/>
      <point x="550" y="450" type="line"/>
      <point x="550" y="480" type="line"/>
      <point x="550" y="630"/>
      <point x="470" y="700"/>
    </contour>
    <contour>
      <point x="270" y="700" type="line" smooth="yes"/>
      <point x="130" y="700"/>
      <point x="50" y="630"/>
      <point x="50" y="480" type="curve"/>
      <point x="50" y="350" type="line"/>
      <point x="150" y="350" type="line"/>
      <point x="150" y="460" type="line" smooth="yes"/>
      <point x="150" y="580"/>
      <point x="170" y="600"/>
      <point x="300" y="600" type="curve"/>
      <point x="300" y="700" type="line"/>
    </contour>
    <contour>
      <point x="330" y="0" type="line" smooth="yes"/>
      <point x="470" y="0"/>
      <point x="550" y="70"/>
      <point x="550" y="220" type="curve"/>
      <point x="550" y="250" type="line"/>
      <point x="450" y="250" type="line"/>
      <point x="450" y="240" type="line" smooth="yes"/>
      <point x="450" y="120"/>
      <point x="420" y="100"/>
      <point x="300" y="100" type="curve"/>
      <point x="300" y="0" type="line"/>
    </contour>
    <contour>
      <point x="270" y="0" type="curve" smooth="yes"/>
      <point x="300" y="0" type="line"/>
      <point x="300" y="100" type="line"/>
      <point x="170" y="100"/>
      <point x="150" y="120"/>
      <point x="150" y="240" type="curve" smooth="yes"/>
      <point x="150" y="350" type="line"/>
      <point x="50" y="350" type="line"/>
      <point x="50" y="220" type="line"/>
      <point x="50" y="70"/>
      <point x="130" y="0"/>
    </contour>
    <contour>
      <point x="15" y="400" type="line"/>
      <point x="390" y="400" type="line"/>
      <point x="400" y="500" type="line"/>
      <point x="25" y="500" type="line"/>
    </contour>
    <contour>
      <point x="-5" y="200" type="line"/>
      <point x="365" y="200" type="line"/>
      <point x="375" y="300" type="line"/>
      <point x="5" y="300" type="line"/>
    </contour>
  </outline>
</glyph>
<glyph name="minus" format="1">
  <advance width="600"/>
  <unicode hex="2212"/>
  <outline>
    <contour>
      <point x="550" y="200" type="line"/>
      <point x="550" y="300" type="line"/>
      <point x="50" y="300" type="line"/>
      <point x="50" y="200" type="line"/>
    </contour>
  </outline>
</glyph>
<glyph name="a.alt" format="1">
  <advance width="600"/>
  <outline>
    <contour>
      <point x="550" y="0" type="line"/>
      <point x="550" y="500" type="line"/>
      <point x="460" y="500" type="line"/>
      <point x="450" y="420" type="line"/>
      <point x="450" y="80" type="line"/>
      <point x="460" y="0" type="line"/>
    </contour>
    <contour>
      <point x="450" y="420" type="line"/>
      <point x="440" y="470"/>
      <point x="390" y="510"/>
      <point x="270" y="510" type="curve" smooth="yes"/>
      <point x="120" y="510"/>
      <point x="50" y="440"/>
      <point x="50" y="290" type="curve"/>
      <point x="50" y="250" type="line"/>
      <point x="150" y="250" type="line"/>
      <point x="150" y="260" type="line"/>
      <point x="150" y="380"/>
      <point x="190" y="410"/>
      <point x="300" y="410" type="curve" smooth="yes"/>
      <point x="430" y="410"/>
      <point x="450" y="360"/>
      <point x="450" y="260" type="curve"/>
    </contour>
    <contour>
      <point x="450" y="80" type="curve"/>
      <point x="450" y="240" type="line"/>
      <point x="450" y="140"/>
      <point x="430" y="90"/>
      <point x="300" y="90" type="curve" smooth="yes"/>
      <point x="190" y="90"/>
      <point x="150" y="120"/>
      <point x="150" y="240" type="curve"/>
      <point x="150" y="250" type="line"/>
      <point x="50" y="250" type="line"/>
      <point x="50" y="210" type="line"/>
      <point x="50" y="60"/>
      <point x="120" y="-10"/>
      <point x="270" y="-10" type="curve" smooth="yes"/>
      <point x="390" y="-10"/>
      <point x="440" y="30"/>
    </contour>
  </outline>
</glyph>
<glyph name="eight.sup" format="1">
  <advance width="400"/>
  <outline>
    <contour>
      <point x="255" y="595" type="curve" smooth="yes"/>
      <point x="255" y="575"/>
      <point x="235" y="575"/>
      <point x="200" y="575" type="curve"/>
      <point x="165" y="575"/>
      <point x="145" y="575"/>
      <point x="145" y="595" type="curve" smooth="yes"/>
      <point x="145" y="615"/>
      <point x="165" y="615"/>
      <point x="200" y="615" type="curve"/>
      <point x="235" y="615"/>
      <point x="255" y="615"/>
    </contour>
    <contour>
      <point x="255" y="505" type="curve" smooth="yes"/>
      <point x="255" y="485"/>
      <point x="235" y="485"/>
      <point x="200" y="485" type="curve"/>
      <point x="165" y="485"/>
      <point x="145" y="485"/>
      <point x="145" y="505" type="curve" smooth="yes"/>
      <point x="145" y="525"/>
      <point x="165" y="525"/>
      <point x="200" y="525" type="curve"/>
      <point x="235" y="525"/>
      <point x="255" y="525"/>
    </contour>
    <contour>
      <point x="200" y="710" type="curve"/>
      <point x="100" y="710"/>
      <point x="50" y="685"/>
      <point x="50" y="625" type="curve"/>
      <point x="50" y="590"/>
      <point x="80" y="560"/>
      <point x="115" y="555" type="curve"/>
      <point x="115" y="545" type="line"/>
      <point x="80" y="540"/>
      <point x="50" y="510"/>
      <point x="50" y="475" type="curve"/>
      <point x="50" y="415"/>
      <point x="100" y="390"/>
      <point x="200" y="390" type="curve"/>
      <point x="300" y="390"/>
      <point x="350" y="415"/>
      <point x="350" y="475" type="curve"/>
      <point x="350" y="510"/>
      <point x="320" y="540"/>
      <point x="285" y="545" type="curve"/>
      <point x="285" y="555" type="line"/>
      <point x="320" y="560"/>
      <point x="350" y="590"/>
      <point x="350" y="625" type="curve"/>
      <point x="350" y="685"/>
      <point x="300" y="710"/>
    </contour>
  </outline>
</glyph>
<glyph name="g.alt" format="1">
  <advance width="600"/>
  <outline>
    <contour>
      <point x="450" y="420" type="line"/>
      <point x="440" y="470"/>
      <point x="390" y="510"/>
      <point x="270" y="510" type="curve" smooth="yes"/>
      <point x="120" y="510"/>
      <point x="50" y="440"/>
      <point x="50" y="290" type="curve"/>
      <point x="50" y="250" type="line"/>
      <point x="150" y="250" type="line"/>
      <point x="150" y="260" type="line"/>
      <point x="150" y="380"/>
      <point x="190" y="410"/>
      <point x="300" y="410" type="curve" smooth="yes"/>
      <point x="430" y="410"/>
      <point x="450" y="360"/>
      <point x="450" y="260" type="curve"/>
    </contour>
    <contour>
      <point x="550" y="-30" type="curve"/>
      <point x="550" y="500" type="line"/>
      <point x="460" y="500" type="line"/>
      <point x="450" y="420" type="line"/>
      <point x="450" y="240" type="line"/>
      <point x="450" y="140"/>
      <point x="430" y="90"/>
      <point x="300" y="90" type="curve" smooth="yes"/>
      <point x="190" y="90"/>
      <point x="150" y="120"/>
      <point x="150" y="240" type="curve"/>
      <point x="150" y="250" type="line"/>
      <point x="50" y="250" type="line"/>
      <point x="50" y="210" type="line"/>
      <point x="50" y="132"/>
      <point x="73" y="76"/>
      <point x="132" y="40" type="curve"/>
      <point x="80" y="30"/>
      <point x="50" y="0"/>
      <point x="50" y="-60" type="curve" smooth="yes"/>
      <point x="50" y="-150"/>
      <point x="110" y="-210"/>
      <point x="300" y="-210" type="curve" smooth="yes"/>
      <point x="480" y="-210"/>
      <point x="550" y="-140"/>
    </contour>
    <contour>
      <point x="300" y="-110" type="curve" smooth="yes"/>
      <point x="170" y="-110"/>
      <point x="150" y="-100"/>
      <point x="150" y="-60" type="curve" smooth="yes"/>
      <point x="150" y="-25"/>
      <point x="178" y="-10"/>
      <point x="270" y="-10" type="curve"/>
      <point x="390" y="-10"/>
      <point x="440" y="30"/>
      <point x="450" y="80" type="curve"/>
      <point x="450" y="-30" type="line" smooth="yes"/>
      <point x="450" y="-90"/>
      <point x="430" y="-110"/>
    </contour>
  </outline>
</glyph>
<glyph name="g.alt2" format="1">
  <advance width="600"/>
  <outline>
    <contour>
      <point x="190" y="250" type="line"/>
      <point x="100" y="250"/>
      <point x="50" y="210"/>
      <point x="50" y="130" type="curve" smooth="yes"/>
      <point x="50" y="50"/>
      <point x="110.0" y="0.0"/>
      <point x="200.0" y="0.0" type="curve"/>
      <point x="310.0" y="0.0" type="line"/>
      <point x="310.0" y="100.0" type="line"/>
      <point x="248.0" y="100.0" type="line"/>
      <point x="200" y="100" type="line" smooth="yes"/>
      <point x="160" y="100"/>
      <point x="150.0" y="120.0"/>
      <point x="150.0" y="150.0" type="curve" smooth="yes"/>
      <point x="150.0" y="180.0"/>
      <point x="160" y="200"/>
      <point x="190" y="200" type="curve"/>
      <point x="210" y="200" type="line"/>
      <point x="210" y="250" type="line"/>
    </contour>
    <contour>
      <point x="190" y="0" type="curve" smooth="yes"/>
      <point x="410" y="0" type="line" smooth="yes"/>
      <point x="450" y="0"/>
      <point x="460" y="-20"/>
      <point x="460" y="-50" type="curve"/>
      <point x="460" y="-80"/>
      <point x="450" y="-100"/>
      <point x="410" y="-100" type="curve" smooth="yes"/>
      <point x="190" y="-100" type="line" smooth="yes"/>
      <point x="150" y="-100"/>
      <point x="140" y="-80"/>
      <point x="140" y="-50" type="curve"/>
      <point x="140" y="-20"/>
      <point x="150" y="0"/>
    </contour>
    <contour>
      <point x="410" y="100" type="curve"/>
      <point x="248" y="100" type="line"/>
      <point x="190" y="50" type="line"/>
      <point x="100" y="50"/>
      <point x="40" y="10"/>
      <point x="40" y="-70" type="curve"/>
      <point x="40" y="-140"/>
      <point x="100" y="-200"/>
      <point x="190" y="-200" type="curve"/>
      <point x="410" y="-200" type="line"/>
      <point x="500" y="-200"/>
      <point x="560" y="-130"/>
      <point x="560" y="-50" type="curve"/>
      <point x="560" y="30"/>
      <point x="500" y="100"/>
    </contour>
    <contour>
      <point x="270" y="470" type="line"/>
      <point x="330" y="470"/>
      <point x="360" y="510"/>
      <point x="360" y="580" type="curve" smooth="yes"/>
      <point x="360" y="650"/>
      <point x="310" y="700"/>
      <point x="240" y="700" type="curve"/>
      <point x="201" y="700" type="line"/>
      <point x="201" y="600" type="line"/>
      <point x="210" y="600" type="line"/>
      <point x="250" y="600"/>
      <point x="260" y="580"/>
      <point x="260" y="550" type="curve" smooth="yes"/>
      <point x="260" y="520"/>
      <point x="250" y="500"/>
      <point x="210" y="500" type="curve"/>
    </contour>
    <contour>
      <point x="190" y="400" type="curve" smooth="yes"/>
      <point x="410" y="400" type="line" smooth="yes"/>
      <point x="450" y="400"/>
      <point x="460" y="380"/>
      <point x="460" y="350" type="curve"/>
      <point x="460" y="320"/>
      <point x="450" y="300"/>
      <point x="410" y="300" type="curve" smooth="yes"/>
      <point x="190" y="300" type="line" smooth="yes"/>
      <point x="150" y="300"/>
      <point x="140" y="320"/>
      <point x="140" y="350" type="curve"/>
      <point x="140" y="380"/>
      <point x="150" y="400"/>
    </contour>
    <contour>
      <point x="410" y="500" type="curve"/>
      <point x="190" y="500" type="line"/>
      <point x="100" y="500"/>
      <point x="40" y="430"/>
      <point x="40" y="350" type="curve"/>
      <point x="40" y="270"/>
      <point x="100" y="200"/>
      <point x="190" y="200" type="curve"/>
      <point x="410" y="200" type="line"/>
      <point x="500" y="200"/>
      <point x="560" y="270"/>
      <point x="560" y="350" type="curve"/>
      <point x="560" y="430"/>
      <point x="500" y="500"/>
    </contour>
  </outline>
</glyph>
<glyph name="hashed_large_square" format="1">
  <advance width="1000"/>
  <outline>
    <contour>
      <point x="150" y="-100" type="line"/>
      <point x="150" y="600" type="line"/>
      <point x="850" y="600" type="line"/>
      <point x="850" y="-100" type="line"/>
    </contour>
    <contour>
      <point x="50" y="-200" type="line"/>
      <point x="950" y="-200" type="line"/>
      <point x="950" y="700" type="line"/>
      <point x="50" y="700" type="line"/>
    </contour>
    <contour>
      <point x="100" y="0" type="line"/>
      <point x="900" y="0" type="line"/>
      <point x="900" y="100" type="line"/>
      <point x="100" y="100" type="line"/>
    </contour>
    <contour>
      <point x="100" y="200" type="line"/>
      <point x="900" y="200" type="line"/>
      <point x="900" y="300" type="line"/>
      <point x="100" y="300" type="line"/>
    </contour>
    <contour>
      <point x="100" y="400" type="line"/>
      <point x="900" y="400" type="line"/>
      <point x="900" y="500" type="line"/>
      <point x="100" y="500" type="line"/>
    </contour>
    <contour>
      <point x="550" y="-150" type="line"/>
      <point x="550" y="650" type="line"/>
      <point x="450" y="650" type="line"/>
      <point x="450" y="-150" type="line"/>
    </contour>
    <contour>
      <point x="350" y="-150" type="line"/>
      <point x="350" y="650" type="line"/>
      <point x="250" y="650" type="line"/>
      <point x="250" y="-150" type="line"/>
    </contour>
    <contour>
      <point x="750" y="-150" type="line"/>
      <point x="750" y="650" type="line"/>
      <point x="650" y="650" type="line"/>
      <point x="650" y="-150" type="line"/>
    </contour>
  </outline>
</glyph>
<glyph name="one.LT" format="1">
  <advance width="600"/>
  <outline>
    <contour>
      <point x="50" y="0" type="line"/>
      <point x="550" y="0" type="line"/>
      <point x="550" y="100" type="line"/>
      <point x="50" y="100" type="line"/>
    </contour>
    <contour>
      <point x="250" y="45" type="line"/>
      <point x="350" y="45" type="line"/>
      <point x="350" y="700" type="line"/>
      <point x="280" y="700" type="line"/>
      <point x="250" y="660" type="line"/>
    </contour>
    <contour>
      <point x="50" y="425" type="line"/>
      <point x="330" y="610" type="line"/>
      <point x="280" y="700" type="line"/>
      <point x="50" y="545" type="line"/>
    </contour>
  </outline>
</glyph>
<glyph name="six.sup" format="1">
  <advance width="400"/>
  <outline>
    <contour>
      <point x="210" y="390" type="curve"/>
      <point x="300" y="390"/>
      <point x="360" y="415"/>
      <point x="360" y="485" type="curve"/>
      <point x="360" y="605"/>
      <point x="220" y="565"/>
      <point x="140" y="580" type="curve"/>
      <point x="140" y="520" type="line"/>
      <point x="170" y="510"/>
      <point x="270" y="525"/>
      <point x="270" y="490" type="curve"/>
      <point x="270" y="470"/>
      <point x="240" y="470"/>
      <point x="210" y="470" type="curve"/>
      <point x="165" y="470"/>
      <point x="140" y="475"/>
      <point x="140" y="505" type="curve" smooth="yes"/>
      <point x="140" y="580" type="line" smooth="yes"/>
      <point x="140" y="620"/>
      <point x="170" y="620"/>
      <point x="200" y="620" type="curve" smooth="yes"/>
      <point x="230" y="620"/>
      <point x="260" y="620"/>
      <point x="260" y="590" type="curve"/>
      <point x="350" y="590" type="line"/>
      <point x="350" y="670"/>
      <point x="290" y="710"/>
      <point x="200" y="710" type="curve" smooth="yes"/>
      <point x="120" y="710"/>
      <point x="50" y="670"/>
      <point x="50" y="580" type="curve"/>
      <point x="50" y="505" type="line"/>
      <point x="50" y="420"/>
      <point x="110" y="390"/>
    </contour>
  </outline>
</glyph>
